# xmcd
# 
# Track frame offsets:
#     150
#     11765
#     26850
#     43670
#     71142
#     83167
#     101120
#     112887
#     134577
#     146520
#     166342
# 
# Disc length: 2390
# 
# Revision: 22
# Processed by: cddbd v1.5.2PL0 Copyright (c) Steve Scherf et al.
# Submitted via: fre:ac v1.0.31
# 
DISCID=9a09540b
DTITLE=高屋奈月 - フルーツバスケット-四季-
DYEAR=2001
DGENRE=Anime
TTITLE0=序曲<Overture>
TTITLE1=岡崎律子 - 小さな祈り
TTITLE2=ただ泣きたくなるの<Orchestra Version>
TTITLE3=岡崎律子 - セレナーデ
TTITLE4=For フルーツバスケット<Orchestra Version>
TTITLE5=岡崎律子 - 愛すべき明日<Fruits Basket Version>
TTITLE6=木漏れ日<Interlude>
TTITLE7=岡崎律子 - 空色
TTITLE8=小さな祈り<Orchestra Version>
TTITLE9=岡崎律子 - For フルーツバスケット
TTITLE10=終曲<Epilogue>
EXTD=YEAR: 2001
EXTT0=
EXTT1=
EXTT2=
EXTT3=
EXTT4=
EXTT5=
EXTT6=
EXTT7=
EXTT8=
EXTT9=
EXTT10=
PLAYORDER=
